<svg width="35" height="35" fill="none" xmlns="http://www.w3.org/2000/svg">
  <circle cx="17.5" cy="17.5" r="17.5" fill="#fff"/>
  <path d="M17.16 15.44c.17.35.6.43.95.17.35-.17.44-.6.18-.95-.18-.35-.61-.44-.96-.18-.26.26-.35.7-.17.96z" fill="#1A0048"/>
  <path d="M9.76 24.66l8-9.4-.17-.08-8 9.39.17.09z" fill="#1A0048"/>
  <path d="M9.68 23.88c-.87.17-.78 1.3.08 1.39h.1c.77-.18.69-1.3-.18-1.4z" fill="#1A0048"/>
  <path d="M9.68 23.88c-.87.17-.78 1.3.08 1.39h.1c.77-.18.69-1.3-.18-1.4zM17.24 14.66c.26-.26.7-.26.96 0s.26.7 0 .96a.68.68 0 0 1-.96 0 .68.68 0 0 1 0-.96z" fill="#1A0048"/>
  <path d="M25.24 15.53v-.18l-7.56-.34v.17l7.56.35z" fill="#1A0048"/>
  <path d="M17.77 14.4c-.35 0-.7.26-.7.6 0 .35.26.7.6.7.36 0 .7-.26.7-.6 0-.35-.26-.62-.6-.7zM25.33 14.75c.35 0 .7.34.6.7 0 .34-.34.69-.69.6-.34 0-.7-.35-.6-.7 0-.34.34-.6.69-.6z" fill="#1A0048"/>
  <path d="M25.33 14.75c.35 0 .7.34.6.7 0 .34-.34.69-.69.6-.34 0-.7-.35-.6-.7 0-.34.34-.6.69-.6zM17.68 19.44l.17-.09V15.1l-.17.09v4.26z" fill="#1A0048"/>
  <path d="M18.29 14.75c-.26-.27-.61-.35-.96-.1-.26.27-.35.62-.09.97.26.26.61.34.96.08.17-.26.26-.7.09-.95zM18.2 18.92c.26.26.26.7-.09.95l-.08.1a.57.57 0 0 1-.79-.18.62.62 0 0 1 .09-.96l.09-.09c.26-.08.6 0 .78.18z" fill="#1A0048"/>
  <path d="M11.24 14.75l6.52.43-.08-.17-6.52-.44.08.18z" fill="#1A0048"/>
  <path d="M17.85 15.79c.35-.09.61-.44.44-.78-.09-.35-.44-.61-.79-.44-.34.09-.6.44-.43.78.09.26.43.53.78.44zM11.42 15.35c-.35.1-.7-.08-.78-.43-.1-.35.08-.7.43-.78.35-.09.7.08.78.43.09.35-.08.7-.43.78z" fill="#1A0048"/>
  <path d="M11.42 15.35c-.35.1-.7-.08-.78-.43-.1-.35.08-.7.43-.78.35-.09.7.08.78.43.09.35-.08.7-.43.78zM17.76 15.18l8.7-5.22-.09-.08-8.7 5.21.1.1z" fill="#1A0048"/>
  <path d="M17.24 14.66a.68.68 0 0 0 0 .96c.26.26.7.26.96 0a.68.68 0 0 0 0-.96.68.68 0 0 0-.96 0z" fill="#1A0048"/>
  <path d="M17.24 14.66a.68.68 0 0 0 0 .96c.26.26.7.26.96 0a.68.68 0 0 0 0-.96.68.68 0 0 0-.96 0zM25.94 9.44c.26-.26.7-.26.96 0s.26.7 0 .96a.68.68 0 0 1-.96 0c-.26-.35-.26-.7 0-.96z" fill="#1A0048"/>
  <path d="M25.94 9.44c.26-.26.7-.26.96 0s.26.7 0 .96a.68.68 0 0 1-.96 0c-.26-.35-.26-.7 0-.96zM21.5 20.22v-.17l-3.82-.7v.18l3.82.7z" fill="#1A0048"/>
  <path d="M17.94 18.74c-.35-.08-.7.1-.78.44v.17c0 .35.17.61.52.7.35.09.7-.09.78-.44v-.17c-.09-.35-.26-.6-.52-.7zM21.6 19.44c.34 0 .69.35.6.7v.17a.76.76 0 0 1-.7.52c-.34 0-.7-.35-.6-.7v-.17c.08-.35.34-.52.7-.52z" fill="#1A0048"/>
  <path d="M21.6 19.44c.34 0 .69.35.6.7v.17a.76.76 0 0 1-.7.52c-.34 0-.7-.35-.6-.7v-.17c.08-.35.34-.52.7-.52zM18.9 25.53l-1.05-6.09h-.17l1.04 6.09h.18z" fill="#1A0048"/>
  <path d="M18.37 19.53c.1-.35-.08-.7-.43-.78h-.17c-.35 0-.61.17-.7.52-.09.35.09.7.43.78h.18c.35 0 .6-.17.7-.52z" fill="#1A0048"/>
  <path d="M18.37 19.53c.1-.35-.08-.7-.43-.78h-.17c-.35 0-.61.17-.7.52-.09.35.09.7.43.78h.18c.35 0 .6-.17.7-.52zM19.33 25.1c.44.78-.52 1.47-1.13.78-.35-.79.52-1.4 1.13-.79z" fill="#1A0048"/>
  <path d="M19.33 25.1c.44.78-.52 1.47-1.13.78-.35-.79.52-1.4 1.13-.79zM12.55 14.32a1.82 1.82 0 1 1-3.64 0 1.82 1.82 0 0 1 3.64 0zM28 9.77a1.82 1.82 0 1 1-3.64 0 1.82 1.82 0 0 1 3.64 0zM27.1 15.23a1.82 1.82 0 1 1-3.65 0 1.82 1.82 0 0 1 3.64 0zM24.36 19.77a1.82 1.82 0 1 1-3.63 0 1.82 1.82 0 0 1 3.63 0z" fill="#1A0048"/>
  <path d="M20.73 25.23a1.82 1.82 0 1 1-3.64 0 1.82 1.82 0 0 1 3.64 0zM11.64 24.32a1.82 1.82 0 1 1-3.64 0 1.82 1.82 0 0 1 3.64 0z" fill="#1A0048"/>
  <circle cx="18" cy="15.23" r="1.82" fill="url(#paint0_linear)"/>
  <defs>
    <linearGradient id="paint0_linear" x1="16.18" y1="13.41" x2="19.82" y2="13.41" gradientUnits="userSpaceOnUse">
      <stop stop-color="#31E9AD"/>
      <stop offset="1" stop-color="#00CBFF"/>
    </linearGradient>
  </defs>
</svg>
